<?xml version="1.0" standalone="no"?>
<!DOCTYPE svg PUBLIC "-//W3C//DTD SVG 20010904//EN"
 "http://www.w3.org/TR/2001/REC-SVG-20010904/DTD/svg10.dtd">
<svg version="1.0" xmlns="http://www.w3.org/2000/svg"
 width="900.000000pt" height="900.000000pt" viewBox="0 0 900.000000 900.000000"
 preserveAspectRatio="xMidYMid meet">
<metadata>
Created by potrace 1.11, written by Peter Selinger 2001-2013
</metadata>
<g transform="translate(0.000000,900.000000) scale(0.100000,-0.100000)"
fill="#000000" stroke="none">
<path d="M4190 8700 c-372 -23 -775 -116 -1237 -287 -206 -76 -728 -351 -818
-431 -23 -20 -75 -59 -115 -87 -183 -125 -543 -458 -706 -655 -112 -134 -260
-329 -333 -438 -125 -187 -282 -479 -360 -668 -14 -32 -37 -86 -51 -119 -50
-111 -158 -458 -168 -540 -6 -44 -22 -134 -35 -200 -47 -224 -59 -351 -63
-690 -6 -371 14 -612 75 -920 11 -55 23 -122 26 -150 9 -74 26 -147 41 -177 8
-15 16 -45 19 -67 8 -64 108 -325 190 -496 24 -49 63 -133 88 -185 128 -269
427 -693 690 -979 108 -118 340 -328 467 -423 246 -185 358 -262 499 -342 125
-72 441 -225 563 -274 114 -45 395 -125 409 -116 5 2 19 -2 31 -10 34 -21 319
-84 502 -111 238 -34 489 -49 726 -42 249 8 500 36 680 77 52 12 127 27 167
35 78 15 206 50 238 65 11 6 85 32 165 59 169 57 317 119 479 201 139 69 334
182 375 217 16 14 41 29 55 34 57 22 308 205 426 310 11 10 61 54 110 97 157
138 495 504 495 536 0 4 22 33 49 64 27 31 99 138 161 236 281 448 452 860
575 1391 36 154 57 296 76 515 5 58 12 124 15 148 4 25 1 63 -6 89 -9 30 -10
47 -3 51 15 10 27 122 14 122 -6 0 -12 -23 -13 -52 0 -29 -5 26 -9 122 -4 96
-16 247 -25 335 -9 88 -18 188 -19 222 -1 34 -6 68 -12 75 -14 18 -25 71 -28
139 -3 66 -80 353 -105 389 -10 14 -25 50 -35 80 -10 30 -31 88 -46 129 -33
86 -32 104 2 35 12 -27 24 -43 26 -37 2 6 -10 41 -27 78 -17 36 -36 78 -42 93
-9 24 -11 25 -17 8 -6 -15 -10 -10 -24 24 -16 42 -16 42 3 25 25 -23 25 -9 1
48 -18 42 -41 74 -84 119 -21 22 -120 201 -106 193 14 -9 11 8 -7 33 -8 12
-17 31 -19 43 -5 25 -20 49 -99 159 -33 45 -67 97 -76 114 -38 71 -47 84 -73
116 -15 18 -31 30 -34 26 -4 -3 3 -16 15 -29 12 -13 22 -27 22 -32 0 -4 10
-22 23 -39 29 -39 40 -56 34 -56 -3 0 -36 42 -74 92 -81 111 -89 123 -74 114
21 -14 11 14 -19 47 -16 19 -30 39 -30 45 0 21 -127 153 -330 343 -215 201
-260 239 -283 243 -26 4 -176 108 -182 126 -3 10 -25 32 -48 49 -61 45 -255
171 -263 171 -3 0 -39 19 -78 43 -88 54 -279 147 -300 147 -9 0 -24 8 -34 18
-9 9 -37 24 -62 31 -25 8 -72 27 -105 42 -261 120 -867 260 -1230 283 -165 11
-504 14 -625 6z m3155 -1132 l70 -72 -75 69 c-41 38 -77 71 -79 72 -2 2 0 3 5
3 5 0 41 -32 79 -72z m288 -293 c35 -46 26 -38 -68 65 -56 61 -59 65 -16 25
29 -27 67 -68 84 -90z m462 -615 c3 -5 1 -10 -4 -10 -6 0 -11 5 -11 10 0 6 2
10 4 10 3 0 8 -4 11 -10z m285 -585 c0 -5 -5 -3 -10 5 -5 8 -10 20 -10 25 0 6
5 3 10 -5 5 -8 10 -19 10 -25z"/>
<path d="M6970 7894 c0 -8 32 -33 43 -34 5 0 5 4 2 10 -8 13 -45 33 -45 24z"/>
</g>
</svg>
